; NON-PLATED HOLES START AT T1
; THROUGH (PLATED) HOLES START AT T100
M48
INCH
T1C0.125984		;; ねじ穴 M3 3.2mm
T100C0.039370		;; 抵抗とかのリード線の穴
T101C0.043307		;; ピンヘッダの穴 (Large)
T102C0.100000		;; DC のジャックの穴
%
T1
X03523Y03517
X00223Y00217
X03523Y00217
X00223Y03517
T100
X01123Y01817
X01123Y01017
X01623Y01717
X01323Y02717
X02423Y03017
X01723Y01317
X02823Y03017
X02123Y01317
X01323Y01617
X02423Y02117
X01623Y01317
X02823Y02117
X01323Y00417
X01323Y01717
X01923Y02417
X01723Y00417
X02123Y01617
X02123Y00417
X01723Y01617
X01723Y02717
X01123Y01117
X01623Y00417
X01323Y01317
X01623Y01617
X01923Y02717
X01923Y02217
X01623Y00517
X01323Y01417
X02123Y00717
X02223Y02117
X01723Y00717
X01723Y02417
X02223Y03017
X01123Y00817
X01923Y02517
X01623Y00717
X01623Y01417
X01323Y02417
X01323Y00517
X02223Y03117
X01323Y00717
X02223Y02817
X01123Y01317
X02223Y02417
X01123Y01517
X01723Y03017
X01323Y01117
X02123Y01017
X01723Y01017
X01723Y02117
X01123Y01217
X01123Y01717
X01623Y01017
X01123Y00417
X01123Y01617
X01323Y02117
X01623Y01117
X02423Y02717
X01123Y00917
X02823Y02717
X01323Y01017
X01323Y03017
X01623Y00817
X01123Y00717
X01923Y03117
X02823Y02417
X02423Y02417
X01923Y02817
X01123Y00517
X02223Y02717
X02223Y02217
X01323Y00817
X01923Y02117
X01923Y03017
X01123Y01417
X02223Y02517
X01123Y00617
T101
X00623Y01817
X00623Y01017
X00723Y01817
X00723Y01017
X03123Y00817
X00623Y02017
X00723Y01117
X03023Y00817
X00723Y02017
X00623Y01117
X00723Y00817
X03123Y01117
X03023Y02017
X00623Y00817
X03023Y01117
X03123Y02017
X03023Y01017
X03123Y02117
X03023Y01817
X03123Y01017
X03123Y01817
X03023Y02117
X03123Y00617
X00723Y01217
X03123Y01417
X00723Y01717
X03023Y01917
X00623Y01317
X00623Y01517
X03023Y00617
X00623Y01217
X03123Y01917
X03023Y01417
X00623Y01717
X00723Y01317
X00723Y01517
X03123Y00517
X03123Y00317
X00623Y00417
X00723Y00917
X03023Y00717
X00623Y01617
X03023Y00517
X03023Y00317
X03123Y00717
X00623Y00917
X00723Y00417
X00723Y01617
X03123Y02217
X00723Y00517
X03023Y01617
X03123Y00917
X00623Y00717
X03023Y00417
X03023Y02217
X00623Y00517
X03123Y01617
X03123Y00417
X00723Y00717
X03023Y00917
X03123Y01717
X00723Y01417
X00623Y01917
X03123Y01217
X00723Y00617
X03023Y01517
X03023Y01317
X00723Y01917
X00623Y01417
X00623Y00617
X03023Y01717
X03023Y01217
X03123Y01517
X03123Y01317
T102
X01733Y03497
X01923Y03617
X01923Y03377
T00
M30
